<svg width="13" height="15" viewBox="0 0 13 15" fill="none" xmlns="http://www.w3.org/2000/svg">
<path d="M0 13.5726C0 14.3478 0.616901 14.9767 1.37727 14.9767H11.4772C12.2376 14.9767 12.8545 14.3478 12.8545 13.5726V5.61633H0V13.5726ZM9.18178 7.83942C9.18178 7.64636 9.33672 7.4884 9.5261 7.4884H10.6738C10.8632 7.4884 11.0181 7.64636 11.0181 7.83942V9.00946C11.0181 9.20252 10.8632 9.36047 10.6738 9.36047H9.5261C9.33672 9.36047 9.18178 9.20252 9.18178 9.00946V7.83942ZM9.18178 11.5836C9.18178 11.3905 9.33672 11.2325 9.5261 11.2325H10.6738C10.8632 11.2325 11.0181 11.3905 11.0181 11.5836V12.7536C11.0181 12.9467 10.8632 13.1046 10.6738 13.1046H9.5261C9.33672 13.1046 9.18178 12.9467 9.18178 12.7536V11.5836ZM5.50907 7.83942C5.50907 7.64636 5.66401 7.4884 5.85338 7.4884H7.00111C7.19048 7.4884 7.34542 7.64636 7.34542 7.83942V9.00946C7.34542 9.20252 7.19048 9.36047 7.00111 9.36047H5.85338C5.66401 9.36047 5.50907 9.20252 5.50907 9.00946V7.83942ZM5.50907 11.5836C5.50907 11.3905 5.66401 11.2325 5.85338 11.2325H7.00111C7.19048 11.2325 7.34542 11.3905 7.34542 11.5836V12.7536C7.34542 12.9467 7.19048 13.1046 7.00111 13.1046H5.85338C5.66401 13.1046 5.50907 12.9467 5.50907 12.7536V11.5836ZM1.83636 7.83942C1.83636 7.64636 1.9913 7.4884 2.18067 7.4884H3.3284C3.51777 7.4884 3.67271 7.64636 3.67271 7.83942V9.00946C3.67271 9.20252 3.51777 9.36047 3.3284 9.36047H2.18067C1.9913 9.36047 1.83636 9.20252 1.83636 9.00946V7.83942ZM1.83636 11.5836C1.83636 11.3905 1.9913 11.2325 2.18067 11.2325H3.3284C3.51777 11.2325 3.67271 11.3905 3.67271 11.5836V12.7536C3.67271 12.9467 3.51777 13.1046 3.3284 13.1046H2.18067C1.9913 13.1046 1.83636 12.9467 1.83636 12.7536V11.5836ZM11.4772 1.87219H10.1V0.46814C10.1 0.21073 9.89337 0.00012207 9.64087 0.00012207H8.72269C8.47019 0.00012207 8.2636 0.21073 8.2636 0.46814V1.87219H4.59089V0.46814C4.59089 0.21073 4.3843 0.00012207 4.1318 0.00012207H3.21362C2.96112 0.00012207 2.75453 0.21073 2.75453 0.46814V1.87219H1.37727C0.616901 1.87219 0 2.50109 0 3.27625V4.6803H12.8545V3.27625C12.8545 2.50109 12.2376 1.87219 11.4772 1.87219Z" fill="#393939"/>
</svg>
